<svg width="513" height="353" viewBox="0 0 513 353" fill="none" xmlns="http://www.w3.org/2000/svg">
<path d="M472.298 116.284L468.029 114.449V83.7341C468.029 83.2195 467.61 82.7917 467.099 82.7917H458.168L457.452 82.6491C448.784 80.8356 441.667 74.4341 438.889 65.9556C438.756 65.5619 438.399 65.3108 437.993 65.3108H408.698L406.683 63.488C375.063 34.8719 320.311 17.7971 260.193 17.7971C200.087 17.7971 145.335 34.8719 113.711 63.488L111.696 65.3108H82.5688C82.1627 65.3108 81.8062 65.5619 81.6729 65.9556C78.8953 74.4341 71.7901 80.8356 63.1101 82.6491L62.4064 82.7917H52.4616C51.9377 82.7917 51.5192 83.2195 51.5192 83.7341V114.127L45.3316 114.889C36.2951 115.987 27.2091 124.629 20.4015 138.592C12.9956 153.748 8.92834 173.969 8.92834 195.526C8.92834 217.084 12.9956 237.296 20.4015 252.461C27.2091 266.423 36.2951 275.057 45.3316 276.167L51.5192 276.929V307.322C51.5192 307.833 51.9377 308.264 52.4616 308.264H70.7641L71.5762 308.847L70.0015 306.379H53.404V276.095C53.404 275.618 53.0475 275.224 52.5701 275.162L45.5579 274.307C28.8427 272.254 10.8008 241.552 10.8008 195.526C10.8008 149.504 28.8427 118.801 45.5579 116.749L52.5701 115.89C53.0475 115.832 53.404 115.425 53.404 114.96V84.6765H62.5025C62.5614 84.6765 62.6327 84.6641 62.6916 84.6517L63.5038 84.4843C72.5992 82.5778 80.1136 75.9841 83.2477 67.1832H112.068C112.295 67.1832 112.521 67.0995 112.688 66.9445L114.976 64.883C146.252 36.5769 200.539 19.6695 260.193 19.6695C319.855 19.6695 374.146 36.5769 405.418 64.883L407.697 66.9445C407.877 67.0995 408.103 67.1832 408.329 67.1832H437.327C440.451 75.9841 447.963 82.5778 457.07 84.4843L457.87 84.6517C457.942 84.6641 458 84.6765 458.072 84.6765H466.157V115.069C466.157 115.45 466.383 115.782 466.718 115.937L471.56 118.014C488.765 125.404 501.748 158.732 501.748 195.526C501.748 232.323 488.765 265.648 471.56 273.042L466.718 275.116C466.383 275.271 466.157 275.605 466.157 275.987V306.379H449.5C449.299 306.379 449.107 306.438 448.952 306.559L446.853 308.084C443.108 310.803 440.104 314.511 438.185 318.733L439.484 320.425C441.236 316.119 444.205 312.316 447.95 309.6L449.81 308.264H467.099C467.61 308.264 468.029 307.833 468.029 307.322V276.607L472.298 274.772C490.16 267.093 503.62 233.027 503.62 195.526C503.62 158.029 490.16 123.95 472.298 116.284Z" fill="#4565A6"/>
<path d="M476.96 108.605V73.873H459.098C451.837 72.2641 446.58 65.7293 446.58 58.2645V56.3797H412.133C378.842 26.6197 322.121 8.86604 260.192 8.86604C198.273 8.86604 141.555 26.6197 108.264 56.3797H73.9846V58.2645C73.9846 65.7293 68.7363 72.2641 61.4761 73.873H42.6002V106.28C18.5752 110.822 0 149.432 0 195.526C0 241.623 18.5752 280.231 42.6002 284.775V317.183H67.8435C70.99 319.65 73.0887 323.19 73.7459 327.078L76.5607 323.085C75.237 319.399 72.8159 316.132 69.5733 313.785L69.0835 313.425H46.3574V281.508L44.6989 281.303C21.7465 278.479 3.7541 240.811 3.7541 195.526C3.7541 150.242 21.7465 112.577 44.6989 109.749L46.3574 109.548V77.6271H61.6683L62.0589 77.593C70.525 75.8167 76.8335 68.6371 77.655 60.1369H109.706L110.242 59.6471C142.783 30.2095 198.846 12.6232 260.192 12.6232C321.551 12.6232 377.614 30.2095 410.152 59.6471L410.688 60.1369H442.919C443.728 68.6371 450.036 75.8167 458.515 77.593L473.203 77.6271V111.048L474.337 111.538C494.295 120.113 508.797 155.44 508.797 195.526C508.797 235.612 494.295 270.943 474.337 279.515L473.203 280.004V313.425H451.481L450.991 313.785C447.066 316.622 444.36 320.794 443.325 325.422L446.58 329.666C446.601 324.799 448.892 320.187 452.721 317.183H476.96V282.45C497.968 272.409 512.551 236.973 512.551 195.526C512.551 154.082 497.968 118.646 476.96 108.605Z" fill="#4565A6"/>
<path d="M312.272 62.0316C312.272 62.0316 305.21 66.1825 299.202 66.1825C295.894 66.1825 290.9 64.059 287.087 62.1246C287.425 61.92 287.744 61.6751 288.064 61.4302C289.155 60.6056 290.169 59.7221 291.127 58.7642C291.821 58.1256 292.46 57.4312 293.08 56.6965C294.825 54.6505 296.214 52.4526 297.286 50.1431C299.481 48.5466 301.98 47.0648 304.853 45.6543C304.853 45.6543 305.774 53.3547 302.882 56.96C302.073 57.9365 300.554 58.727 298.731 59.347C302.956 59.8523 307.445 60.7358 312.272 62.0316Z" fill="#4565A6"/>
<path d="M285.397 63.4214C276.327 74.5969 265.096 84.644 245.584 90.4069L231.557 65.1853C238.578 68.7534 247.236 70.6692 256.775 70.6692C267.783 70.6692 277.66 68.0962 285.153 63.4214H285.397Z" fill="#4565A6"/>
<path d="M316.76 39.6645C313.775 42.9691 307.162 41.9554 301.34 37.5596C300.817 37.5596 300.29 37.541 299.744 37.5038C298.826 37.448 297.868 37.355 296.911 37.2434C296.929 37.6743 296.948 38.1238 296.948 38.5578C296.948 41.8252 296.365 44.8849 295.237 47.7214C294.88 48.6607 294.449 49.5814 293.962 50.4618C293.473 51.3639 292.946 52.2288 292.347 53.0534C291.746 53.8997 291.107 54.6871 290.413 55.4776C289.359 56.6432 288.178 57.7499 286.901 58.7636C286.073 59.4208 285.208 60.0594 284.29 60.6608H284.272C282.713 61.6931 281.023 62.6138 279.219 63.4198C272.948 66.2749 265.303 67.8528 256.778 67.8528C248.25 67.8528 240.608 66.2749 234.334 63.4198C232.006 62.3503 229.845 61.1289 227.929 59.7215C227.03 59.0829 226.184 58.4071 225.397 57.6941C219.817 52.7155 216.605 46.1435 216.624 38.5175C216.624 38.0866 216.642 37.6185 216.664 37.1659V37.1101C215.706 37.262 214.748 37.3736 213.809 37.448C212.925 37.5224 212.06 37.5596 211.217 37.5596C205.395 41.9554 198.783 42.9691 195.798 39.6645C190.953 34.2922 198.935 19.5703 212.287 7.51438C222.427 -1.61512 231.479 -1.18112 237.263 2.34978C238.221 2.91088 239.068 3.56808 239.836 4.28418C240.494 3.94628 241.151 3.62698 241.827 3.32628C242.502 3.02558 243.181 2.74348 243.857 2.47998C244.552 2.21648 245.246 1.97158 245.94 1.74838C246.015 1.72978 246.092 1.69259 246.167 1.67399C246.787 1.48489 247.407 1.29578 248.045 1.12838C248.684 0.976485 249.322 0.827685 249.958 0.697485C250.166 0.657185 250.392 0.601383 250.597 0.582783C251.179 0.471183 251.781 0.378184 252.364 0.300684C252.965 0.207684 253.566 0.15188 254.186 0.11468C254.391 0.0774799 254.617 0.0774869 254.844 0.0588869C255.482 0.0185869 256.139 -1.62231e-05 256.778 -1.62231e-05C257.584 -1.62231e-05 258.393 0.0371842 259.18 0.0960842C259.726 0.133284 260.269 0.189085 260.796 0.244885C261.003 0.263485 261.208 0.300686 261.416 0.319286C261.98 0.396786 262.522 0.489785 263.068 0.601385H263.124C264.494 0.864885 265.849 1.20278 267.182 1.61508C269.209 2.25368 271.162 3.04418 273.059 3.98348L273.078 3.96488C273.884 3.24878 274.786 2.61018 275.781 2.06768C281.584 -1.18112 290.432 -1.35162 300.271 7.51438C313.623 19.5703 321.587 34.2922 316.76 39.6645Z" fill="#F2A9A9"/>
<path d="M256.781 39.3176C258.424 39.3176 259.757 38.121 259.757 37.4638C259.757 36.8035 258.424 36.2579 256.781 36.2579C255.138 36.2579 253.805 36.8035 253.805 37.4638C253.805 38.121 255.138 39.3176 256.781 39.3176Z" fill="white"/>
<path d="M265.401 42.9431C262.23 43.3895 259.142 41.762 257.471 39.9578C257.462 39.9516 257.45 39.9485 257.44 39.9392C257.431 39.9299 257.431 39.9175 257.422 39.9082C257.382 39.8741 257.335 39.8586 257.292 39.8307C257.239 39.7966 257.189 39.7563 257.13 39.7315C257.075 39.7098 257.016 39.7036 256.957 39.6912C256.898 39.6788 256.842 39.6633 256.78 39.6633C256.721 39.6633 256.662 39.6788 256.603 39.6912C256.545 39.7036 256.489 39.7098 256.43 39.7315C256.374 39.7563 256.324 39.7966 256.272 39.8307C256.228 39.8586 256.182 39.8741 256.142 39.9082C256.132 39.9175 256.129 39.9299 256.123 39.9392C256.114 39.9485 256.101 39.9516 256.092 39.9578C254.418 41.762 251.327 43.3895 248.162 42.9431C247.648 42.8625 247.173 43.2283 247.102 43.7429C247.031 44.2575 247.387 44.7318 247.902 44.8031C248.361 44.8682 248.816 44.8992 249.263 44.8992C252.338 44.8992 255.047 43.4608 256.78 41.9108C258.516 43.4608 261.226 44.8992 264.301 44.8992C264.747 44.8992 265.203 44.8682 265.662 44.8031C266.176 44.7318 266.533 44.2575 266.461 43.7429C266.39 43.2283 265.91 42.8594 265.401 42.9431Z" fill="white"/>
<path d="M99.9155 269.175C99.218 269.175 98.5484 268.788 98.226 268.115L69.2565 208.322C68.8039 207.389 69.1914 206.267 70.1276 205.814C71.0607 205.368 72.1829 205.749 72.6355 206.685L101.605 266.478C102.058 267.411 101.667 268.537 100.734 268.989C100.47 269.113 100.191 269.175 99.9155 269.175Z" fill="#E67848"/>
<path d="M91.2069 223.521C76.0789 195.444 75.7255 170.963 75.7224 170.57C75.7162 163.846 70.2695 158.393 63.5425 158.377H63.5146C56.7876 158.377 51.3223 163.824 51.3099 170.554C51.3068 170.858 51.3161 172.876 51.6013 176.237C54.1743 175.387 57.2216 174.807 60.8021 174.807C62.3583 174.807 63.62 176.069 63.62 177.625C63.62 179.182 62.3583 180.443 60.8021 180.443C57.3115 180.443 54.4843 181.1 52.2368 181.99C52.6646 185.186 53.2877 188.95 54.1991 193.178C56.4001 192.062 59.0754 191.172 62.3056 190.881C63.8246 190.732 65.2258 191.879 65.3684 193.429C65.5079 194.979 64.3671 196.349 62.8171 196.489C59.7481 196.768 57.3518 197.741 55.5445 198.86C56.2978 201.805 57.1782 204.908 58.226 208.157C60.6254 206.914 63.2635 206.031 65.9636 206.031C67.5198 206.031 68.7815 207.292 68.7815 208.849C68.7815 210.405 67.5198 211.663 65.9636 211.663C64.0354 211.663 61.9956 212.445 60.0705 213.548C61.2392 216.778 62.5722 220.114 64.0726 223.53C65.635 222.569 67.4702 221.785 69.603 221.397C71.1375 221.112 72.6007 222.135 72.8797 223.663C73.1587 225.195 72.145 226.661 70.6136 226.94C68.9892 227.235 67.6097 227.914 66.4596 228.723C67.4764 230.828 68.5583 232.954 69.7177 235.102C71.9218 239.194 76.1285 241.523 80.4716 241.523C82.4277 241.519 84.4117 241.051 86.2531 240.059C92.1896 236.86 94.4061 229.454 91.2069 223.521Z" fill="#E67848"/>
<path d="M448.127 170.474C447.675 171.587 448.208 172.858 449.321 173.31C450.437 173.766 451.705 173.23 452.16 172.117C452.613 171.004 452.08 169.733 450.964 169.28C449.851 168.825 448.58 169.361 448.127 170.474Z" fill="white"/>
<path d="M411.027 269.175C410.792 269.175 410.55 269.132 410.321 269.036C409.36 268.645 408.898 267.548 409.288 266.59L448.404 170.589C448.798 169.625 449.892 169.163 450.85 169.557C451.811 169.947 452.273 171.045 451.882 172.003L412.767 268.006C412.469 268.735 411.768 269.175 411.027 269.175Z" fill="#E67848"/>
<path d="M412.169 230.629C409.432 236.656 412.095 243.758 418.121 246.498C424.145 249.235 431.25 246.572 433.987 240.546C436.728 234.523 434.062 227.418 428.038 224.677C422.012 221.94 414.907 224.603 412.169 230.629Z" fill="#E67848"/>
<path d="M417.46 230.529C417.057 231.521 417.531 232.652 418.523 233.058C419.515 233.461 420.65 232.984 421.053 231.992C421.456 231 420.981 229.868 419.989 229.465C418.997 229.059 417.863 229.537 417.46 230.529Z" fill="white"/>
<path d="M418.714 215.101C415.977 221.127 418.639 228.229 424.666 230.969C430.689 233.707 437.794 231.044 440.532 225.017C443.272 218.994 440.606 211.889 434.583 209.149C428.556 206.411 421.451 209.074 418.714 215.101Z" fill="#E67848"/>
<path d="M424.004 215C423.601 215.992 424.075 217.123 425.067 217.53C426.059 217.933 427.194 217.455 427.597 216.463C428 215.471 427.526 214.34 426.534 213.937C425.542 213.531 424.407 214.008 424.004 215Z" fill="white"/>
<path d="M425.258 199.572C422.521 205.598 425.184 212.7 431.21 215.441C437.234 218.178 444.339 215.515 447.076 209.489C449.817 203.465 447.151 196.36 441.127 193.62C435.101 190.882 427.996 193.545 425.258 199.572Z" fill="#E67848"/>
<path d="M430.548 199.471C430.145 200.463 430.62 201.595 431.612 202.001C432.604 202.404 433.738 201.926 434.141 200.934C434.544 199.942 434.07 198.811 433.078 198.408C432.086 198.002 430.951 198.479 430.548 199.471Z" fill="white"/>
<path d="M431.802 184.043C429.065 190.069 431.728 197.171 437.754 199.912C443.778 202.649 450.883 199.986 453.62 193.96C456.361 187.937 453.695 180.831 447.671 178.091C441.645 175.354 434.54 178.017 431.802 184.043Z" fill="#E67848"/>
<path d="M437.093 183.943C436.69 184.935 437.164 186.066 438.156 186.472C439.148 186.875 440.283 186.398 440.686 185.406C441.089 184.414 440.614 183.282 439.622 182.879C438.63 182.473 437.496 182.951 437.093 183.943Z" fill="white"/>
<path d="M438.347 168.514C435.61 174.541 438.272 181.643 444.299 184.383C450.322 187.12 457.427 184.457 460.165 178.431C462.905 172.408 460.239 165.303 454.216 162.562C448.189 159.825 441.084 162.488 438.347 168.514Z" fill="#E67848"/>
<path d="M443.637 168.414C443.234 169.406 443.708 170.537 444.7 170.943C445.692 171.346 446.827 170.869 447.23 169.877C447.633 168.885 447.159 167.753 446.167 167.35C445.175 166.944 444.04 167.422 443.637 168.414Z" fill="white"/>
<path d="M457.424 167.609C457.188 167.609 456.946 167.566 456.717 167.47L448.117 163.967C447.156 163.576 446.694 162.479 447.085 161.521C447.476 160.56 448.576 160.098 449.531 160.488L458.13 163.991C459.091 164.382 459.553 165.479 459.163 166.44C458.868 167.169 458.164 167.609 457.424 167.609Z" fill="#E67848"/>
<path d="M80.6133 320.58C80.8396 320.27 80.8396 319.864 80.6381 319.542L76.6205 313.258L72.9718 307.535L63.0859 292.06L117.172 291.558L118.495 320.831L118.579 322.713L118.815 327.877L118.982 331.632L119.208 336.545C119.221 336.809 119.354 337.06 119.568 337.224C119.769 337.391 120.045 337.475 120.306 337.429C120.365 337.416 123.31 337.06 128.105 336.52L128.177 344.035L63.7059 344.642L73.9824 330.01L77.2374 325.385L80.6133 320.58Z" fill="#4565A6"/>
<path d="M449.309 336.307L394.712 338.108L394.486 331.632L394.356 327.878L394.176 322.714L394.104 320.832L393.196 294.767C393.187 294.504 393.066 294.253 392.864 294.085C392.66 293.921 392.387 293.837 392.136 293.871C389.405 294.231 386.497 294.587 383.444 294.91L383.146 285.883L447.722 283.759L431.342 311.947C431.149 312.282 431.174 312.688 431.401 312.998L437.362 320.748L438.648 322.441L442.833 327.878L445.719 331.632L449.309 336.307Z" fill="#4565A6"/>
<path d="M393.186 348.159C386.353 349.052 360.062 352.189 329.884 352.189C295.654 352.189 268.764 348.255 249.963 340.505C239.494 336.199 227.103 333.22 213.212 331.633C205.357 330.728 197.021 330.275 188.282 330.275C183.272 330.275 178.123 330.418 172.866 330.715C168.513 330.966 164.018 331.276 159.545 331.633C148.397 332.516 137.501 333.614 129.965 334.435C129.642 334.469 129.332 334.506 129.022 334.531C128.7 334.565 128.39 334.603 128.092 334.637C124.825 334.996 122.37 335.294 121.046 335.449L120.866 331.633L120.699 327.879L120.473 322.714L120.376 320.829L119.056 291.547L119.006 290.604L118.972 289.662L118.755 284.987C127.937 282.926 207.682 266.21 269.992 291.891C292.718 301.265 346.112 300.583 381.632 296.972C381.954 296.947 382.264 296.913 382.574 296.876C382.884 296.854 383.194 296.817 383.504 296.779C386.236 296.494 388.871 296.184 391.351 295.862L392.231 320.829L392.293 322.714L392.47 327.879L392.603 331.633L392.839 338.168L392.863 339.11L392.901 340.052L393.186 348.159Z" fill="#4565A6"/>
<path d="M149.602 307.977C148.852 307.977 148.17 307.822 147.705 307.704L148.756 300.956C151.354 301.169 153.192 302.313 153.133 304.328C153.059 306.523 151.58 307.977 149.602 307.977ZM147.742 297.794C141.232 297.856 137.953 301.563 137.953 306.272C137.953 307.143 138.073 307.952 138.346 308.656L141.911 307.608C141.793 307.239 141.722 306.774 141.722 306.247C141.722 303.767 142.937 302.121 144.952 301.383L143.402 310.959C143.092 312.962 142.531 314.512 141.018 314.512C140.336 314.512 139.933 314.357 139.158 313.678L137.106 315.907C137.881 316.896 139.372 317.612 141.04 317.612C145.513 317.612 146.586 314.797 147.181 311.04L147.24 310.73C147.897 310.885 148.756 311.077 149.602 311.077C153.595 311.077 156.72 308.262 156.841 304.446C156.971 300.336 153.31 297.722 147.742 297.794Z" fill="white"/>
<path d="M161.585 300.406C163.064 300.406 164.09 299.358 164.028 297.842C163.994 296.757 163.194 296.007 162.013 296.007C160.5 296.007 159.474 297.067 159.533 298.546C159.57 299.631 160.404 300.406 161.585 300.406Z" fill="white"/>
<path d="M219.521 300.859C221.012 300.859 222.026 299.799 221.964 298.283C221.942 297.198 221.13 296.46 219.949 296.46C218.436 296.46 217.41 297.508 217.469 298.999C217.506 300.071 218.34 300.859 219.521 300.859Z" fill="white"/>
<path d="M211.461 295.636C212.236 295.636 212.583 296.16 212.583 296.935C212.583 298.414 210.841 301.979 207 304.09C207.837 299.26 209.542 295.636 211.461 295.636ZM233.759 305.665C233.936 306.461 234.091 307.667 234.091 309.096C234.091 312.723 232.6 315.107 230.718 315.107C229.847 315.107 229.168 314.546 229.168 313.306C229.168 311.328 230.002 307.856 230.656 305.665H226.877C226.545 306.713 226.235 307.918 225.972 309.134L225.185 308.752C223.861 311.328 222.621 312.435 221.347 312.435C220.082 312.435 219.617 311.446 219.927 309.707L221.096 302.862H217.317L216.529 307.584L215.705 307.19C214.133 310.005 212.332 311.053 210.28 311.053C208.612 311.053 206.845 310.219 206.631 307.714C212.76 305.448 216.325 299.905 216.325 296.839C216.325 294.049 214.133 292.477 211.746 292.477C206.727 292.477 203.996 297.366 203.199 304.806L203.044 306.223C203.02 306.39 203.007 306.558 203.007 306.713L202.341 306.39C201.11 309.003 199.895 310.206 198.249 310.206C196.891 310.206 196.212 309.468 195.685 308.191C197.415 307.202 198.785 305.686 198.785 303.826C198.785 301.908 197.415 300.203 194.851 300.203C193.242 300.203 191.621 301.074 190.201 302.528L191.751 291.988H187.935L185.718 307.236L185.157 306.964C183.821 309.527 182.581 310.646 181.475 310.646C180.638 310.646 180.101 310.181 180.101 309.313C180.101 307.953 180.876 306.058 180.876 304.425C180.876 302.373 179.46 300.764 176.942 300.764C175.095 300.764 173.331 301.694 172.091 302.993L172.33 301.074H168.703L167.642 308.501L167.249 308.312C165.913 310.876 164.685 311.995 163.411 311.995C162.146 311.995 161.681 311.006 161.991 309.264L163.16 302.422H159.381L158.234 309.264C157.496 313.7 159.691 315.25 162.574 315.25C164.208 315.25 165.652 314.68 166.914 313.616H170.696L171.006 311.291L171.065 310.826C171.648 307.429 173.415 303.826 175.643 303.826C176.608 303.826 177.097 304.58 177.097 305.376C177.097 306.833 176.515 308.228 176.515 309.992C176.515 312.627 178.492 313.901 180.638 313.901C182.237 313.901 183.728 313.21 185.015 312.041L184.872 313.055H188.651L189.153 309.645C190.356 305.593 193.267 303.423 194.507 303.423C194.91 303.423 195.161 303.613 195.161 303.923C195.161 304.84 193.146 306.582 191.562 307.106C192.241 310.612 194.042 313.331 197.796 313.331C200.016 313.331 201.922 312.317 203.472 310.243C204.449 312.829 206.845 314.153 209.793 314.153C212.261 314.153 214.393 313.26 216.04 311.685C216.182 314.605 218.101 315.69 220.51 315.69C222.37 315.69 224.003 314.94 225.377 313.57C225.364 313.675 225.364 313.771 225.364 313.867C225.364 316.93 227.426 318.517 230.253 318.517C235.855 318.517 237.752 313.402 237.752 309.121C237.752 307.953 237.597 306.833 237.371 305.665H233.759Z" fill="white"/>
<path d="M245.765 313.343C246.313 313.343 246.599 313.712 246.599 314.118C246.599 314.976 245.551 316.251 243.164 316.526C243.381 314.797 244.466 313.343 245.765 313.343ZM265.307 322.618C265.282 322.655 265.261 322.68 265.236 322.714C264.293 324.025 263.329 325.098 262.266 325.098C261.159 325.098 260.657 324.36 260.657 323.393C260.657 323.179 260.682 322.953 260.716 322.714C260.812 322.131 261.014 321.486 261.289 320.829C261.86 319.425 262.731 317.934 263.447 316.644L261.277 315.06C260.657 315.345 258.927 315.81 257.343 315.81C255.948 315.81 254.277 315.345 253.443 314.846L252.597 316.561L252.513 316.526C251.156 319.354 249.103 320.401 246.874 320.401C245.417 320.401 244.274 319.878 243.654 319.044C248.71 318.135 250.129 315.751 250.129 313.891C250.129 312.162 248.672 310.339 245.824 310.339C241.521 310.339 239.351 313.988 239.351 317.398C239.351 318.731 239.695 319.899 240.34 320.829C240.888 321.641 241.651 322.274 242.606 322.714C243.666 323.229 244.977 323.501 246.481 323.501C247.897 323.501 249.234 323.25 250.439 322.714C251.165 322.392 251.834 321.976 252.467 321.44C252.777 321.998 254.885 322.857 255.077 322.5C255.328 321.998 255.567 321.428 255.768 320.829C256.019 320.129 256.233 319.4 256.388 318.721H256.413C257.126 318.721 257.712 318.743 258.521 318.588C258.165 319.316 257.842 320.091 257.582 320.829C257.356 321.486 257.176 322.131 257.055 322.714C256.962 323.179 256.912 323.61 256.912 323.979C256.912 325.91 258.069 327.293 259.69 327.879C260.263 328.093 260.896 328.198 261.55 328.198C262.195 328.198 262.802 328.08 263.363 327.879C265.211 327.246 266.643 325.709 267.561 324.36L265.425 322.714L265.307 322.618Z" fill="white"/>
<path d="M281.487 313.211C278.232 313.211 275.907 315.285 275.907 318.422C275.907 319.399 276.121 320.186 276.468 320.831C276.884 321.628 277.504 322.214 278.195 322.713C280.008 324.061 282.262 324.79 282.262 327.149C282.262 327.412 282.237 327.651 282.191 327.877C281.927 329.201 280.951 330.001 279.841 330.001C278.53 330.001 277.553 329.201 276.967 327.877C276.837 327.543 276.716 327.174 276.623 326.78L273.557 327.459C273.57 327.601 273.595 327.735 273.616 327.877C273.846 329.151 274.537 330.608 275.786 331.631C276.753 332.431 278.065 332.98 279.745 332.98C281.462 332.98 282.919 332.481 283.992 331.631C285.161 330.726 285.886 329.415 286.066 327.877C286.091 327.639 286.1 327.4 286.1 327.149C286.1 325.063 285.244 323.717 284.169 322.713C283.372 321.963 282.454 321.392 281.667 320.831C280.594 320.068 279.745 319.328 279.745 318.171C279.745 317.027 280.402 316.193 281.416 316.193C282.597 316.193 283.062 317.241 282.786 318.506L286.196 319.352C287.21 315.75 284.981 313.211 281.487 313.211Z" fill="white"/>
<path d="M297.393 327.877C296.726 330.072 295.688 331.287 294.64 331.635C294.423 331.715 294.197 331.752 293.983 331.752C293.744 331.752 293.543 331.715 293.351 331.635C292.563 331.346 292.182 330.466 292.182 329.344C292.182 328.807 292.231 328.318 292.324 327.877C292.768 325.791 294.163 324.753 295.592 324.753C296.212 324.753 297.356 325.041 297.846 325.745C297.728 326.541 297.573 327.245 297.393 327.877ZM316.052 324.765L315.959 324.694L315.779 325.875C315.649 326.6 315.503 327.27 315.326 327.877C314.849 329.654 314.229 330.881 313.525 331.635C312.93 332.264 312.285 332.565 311.619 332.565C310.937 332.565 310.472 332.264 310.295 331.635C310.187 331.25 310.174 330.751 310.295 330.119L310.723 327.877L311.619 323.156H307.837L306.944 327.877L306.873 328.296L306.026 327.89C304.941 330.001 303.928 331.25 302.948 331.635C302.734 331.715 302.52 331.752 302.319 331.752C302.089 331.752 301.876 331.715 301.708 331.635C300.911 331.312 300.66 330.274 300.862 328.845C300.911 328.522 300.958 328.2 301.017 327.877C301.268 326.172 301.59 324.409 301.925 322.716C301.972 322.477 302.018 322.239 302.068 322H298.633L298.453 322.716L298.441 322.738C298.431 322.725 298.419 322.725 298.407 322.716C297.489 322.022 296.32 321.69 295.127 321.69C294.008 321.69 292.898 322.059 291.921 322.716C290.288 323.789 289.023 325.636 288.629 327.877C288.546 328.355 288.499 328.845 288.499 329.344C288.499 330.19 288.617 330.965 288.831 331.635C289.522 333.671 291.168 334.852 293.267 334.852C295.093 334.852 296.522 334.136 297.703 332.503C298.382 334.208 299.861 334.852 301.721 334.852C303.581 334.852 305.109 334.053 306.42 332.624C306.73 334.818 308.364 335.82 310.819 335.82C312.084 335.82 313.417 335.355 314.623 334.09L314.254 336.75C313.848 339.599 312.763 341.028 311.092 341.028C309.613 341.028 308.649 340.122 308.339 339.109L305.214 340.219C305.645 342.912 308.029 344.5 310.76 344.5C314.384 344.5 317.199 342.33 317.937 336.939L318.678 331.635L319.201 327.877L319.893 322.964H316.458L316.052 324.765Z" fill="white"/>
<path d="M372.785 330.608C371.808 330.608 371.126 329.904 370.519 327.876C370.506 327.855 370.506 327.842 370.497 327.818C370.544 327.842 370.602 327.855 370.652 327.876C371.126 328.044 371.52 328.103 371.604 327.935C371.616 327.914 371.629 327.901 371.641 327.876C372.14 326.863 373.048 325.372 373.833 324.311L374.025 324.873C374.381 326.1 374.574 327.077 374.598 327.876C374.611 327.948 374.611 328.019 374.611 328.09C374.611 329.857 373.811 330.608 372.785 330.608ZM361.457 324.479C362.019 324.479 362.291 324.86 362.291 325.254C362.291 326.125 361.244 327.399 358.86 327.675C359.074 325.945 360.159 324.479 361.457 324.479ZM342.737 340.813C342.058 340.813 341.404 340.348 341.366 339.573C341.342 338.488 342.427 337.499 345.372 336.628C344.872 339.049 344.039 340.813 342.737 340.813ZM378.377 327.876C378.331 326.863 378.101 325.682 377.615 324.311C377.472 323.943 377.305 323.369 377.292 322.715C377.28 322.179 377.388 321.58 377.711 320.973L377.494 320.83L375.206 319.293C374.561 319.615 373.882 320.164 373.225 320.83C372.655 321.404 372.106 322.045 371.591 322.715C370.674 323.884 369.877 325.099 369.375 325.92L366.929 326.481C366.979 326.971 367.05 327.449 367.134 327.876C367.146 327.96 367.168 328.044 367.18 328.128C367.251 328.45 367.323 328.76 367.406 329.045C366.095 330.834 364.402 331.55 362.58 331.55C361.123 331.55 359.979 331.026 359.359 330.18C361.969 329.715 363.603 328.856 364.582 327.876C365.5 326.959 365.835 325.933 365.835 325.04C365.835 324.215 365.5 323.381 364.855 322.715C364.13 321.986 363.02 321.475 361.516 321.475C359.966 321.475 358.705 321.952 357.713 322.715C356.116 323.93 355.233 325.899 355.065 327.876C355.056 328.103 355.044 328.32 355.044 328.546C355.044 328.651 355.044 328.76 355.056 328.865L354.78 328.735C354.16 330.096 353.314 331.014 352.241 331.634C351.55 332.04 350.775 332.313 349.891 332.514L350.046 331.634L350.716 327.876L351.646 322.715L351.978 320.83L352.802 316.193H349.02L348.282 320.436C348.245 320.567 348.224 320.7 348.186 320.83C348.019 321.487 347.842 322.117 347.625 322.715C346.887 324.873 345.874 326.674 344.776 327.876C343.822 328.949 342.82 329.569 341.903 329.569C341.032 329.569 340.629 329.166 340.629 327.96V327.876C340.663 326.779 341.342 324.68 341.76 322.715C341.903 322.058 342.011 321.416 342.058 320.83C342.07 320.629 342.082 320.436 342.082 320.247C342.082 316.968 339.699 315.883 337.194 315.883C333.747 315.883 331.577 317.86 330.684 320.83C330.492 321.425 330.374 322.045 330.29 322.715C330.231 323.251 330.194 323.8 330.194 324.37C330.194 325.384 330.349 326.351 330.659 327.185L334.153 326.1C333.998 325.694 333.902 325.207 333.902 324.37C333.902 323.763 333.939 323.214 334.022 322.715C334.128 321.974 334.308 321.342 334.546 320.83C335.129 319.494 336.05 318.886 336.884 318.886C337.839 318.886 338.338 319.565 338.338 320.65V320.83C338.313 321.416 338.207 322.045 338.052 322.715C337.659 324.408 336.992 326.28 336.918 327.876C336.909 327.973 336.909 328.081 336.909 328.174C336.909 329.702 337.361 330.871 338.195 331.634C338.933 332.313 339.971 332.669 341.249 332.669C342.355 332.669 343.465 332.325 344.513 331.634C345.229 331.19 345.92 330.57 346.577 329.82L346.267 331.634L345.992 333.196C339.519 334.613 337.777 337.536 337.777 339.573C337.777 342.639 340.294 344.068 342.737 344.068C346.767 344.068 348.379 341.064 349.175 336.51L349.33 335.735C352.288 335.115 354.458 334.483 356.163 332.17C357.344 333.754 359.442 334.65 362.174 334.65C364.796 334.65 367.096 333.779 368.873 331.906C370.02 333.23 371.508 333.636 373.058 333.636C374.632 333.636 376.375 333.075 377.435 331.634C378.021 330.834 378.39 329.749 378.39 328.341C378.39 328.186 378.39 328.044 378.377 327.876Z" fill="white"/>
<path d="M106.702 106.775V106.465C107.632 107.085 108.218 108.009 108.454 109.243C108.218 110.476 107.282 112.436 105.651 115.105C106.352 110.585 106.702 107.807 106.702 106.775ZM136.478 144.111H138.229C142.895 143.907 145.232 145.243 145.232 148.123C144.997 154.499 143.36 157.686 140.328 157.686C138.93 157.686 137.64 157.587 136.478 157.379C136.004 157.379 135.777 157.277 135.777 157.069C136.704 153.163 137.29 150.079 137.529 147.813C137.529 146.377 137.178 145.141 136.478 144.111ZM110.906 164.782C113.938 170.13 117.791 172.805 122.466 172.805C127.37 172.597 131.574 167.969 135.077 158.92C135.777 160.569 136.239 162.215 136.478 163.858C138.105 169.615 141.379 172.498 146.283 172.498C151.652 172.498 155.155 170.954 156.792 167.87C158.894 163.958 160.06 157.587 160.295 148.74C160.295 136.603 153.289 130.533 139.277 130.533C136.94 130.533 133.44 130.949 128.771 131.767C122.23 133.001 117.562 133.311 114.759 132.694C114.059 128.58 110.556 126.423 104.25 126.215V124.671C104.951 125.087 105.651 125.189 106.352 124.981C112.186 124.361 115.689 120.868 116.861 114.488C116.16 109.348 113.358 106.573 108.454 106.158H106.702C106.231 101.635 102.613 99.2698 95.843 99.0621C91.1682 99.2698 87.5505 100.708 84.9837 103.38H85.6843C86.3849 103.38 86.9646 103.281 87.4358 103.074C89.302 103.281 90.5885 106.056 91.2891 111.403C88.7161 109.348 85.3341 108.319 81.1305 108.319H80.4298C81.1304 109.553 81.5954 110.994 81.831 112.637C81.831 113.052 81.7101 113.772 81.4807 114.798C81.2451 122.411 83.3469 126.113 87.7861 125.905C88.9517 126.113 90.1173 125.704 91.2891 124.671V128.373C88.4867 128.993 86.0346 129.3 83.9328 129.3C81.831 129.3 80.6592 128.683 80.4298 127.449C79.9586 129.3 79.8439 130.949 80.0795 132.384C79.8439 138.556 82.6463 141.848 88.4867 142.258C86.1493 146.787 83.2322 150.798 79.7292 154.292C80.8948 158.613 83.2322 160.774 86.7352 160.774H88.4867V161.391C88.2511 168.794 91.0535 172.498 96.8939 172.498C103.199 172.498 106.352 169.615 106.352 163.858C106.352 163.654 106.231 163.037 106.002 162.008V159.23C106.702 159.645 107.518 159.847 108.454 159.847C111.721 159.847 113.587 157.686 114.059 153.368C113.587 147.813 110.32 143.801 104.25 141.334C109.154 140.717 112.307 139.278 113.708 137.012C114.173 142.983 116.74 145.962 121.415 145.962H123.166V146.579C121.765 153.985 117.676 160.055 110.906 164.782Z" fill="#4565A6"/>
<path d="M140.329 113.872C144.062 126.83 149.552 133.312 156.793 133.312C161.226 133.312 163.564 130.742 163.799 125.596C163.564 122.511 162.628 120.251 160.997 118.81C157.959 116.339 155.392 112.433 153.29 107.083C152.119 104.206 151.068 102.355 150.138 101.531C147.565 99.8845 144.648 99.0599 141.38 99.0599C138.342 99.0599 135.654 99.3699 133.323 99.9868C135.654 101.221 137.992 105.849 140.329 113.872Z" fill="#4565A6"/>
<path d="M120.013 113.563C119.777 117.063 117.089 121.177 111.956 125.904C114.058 129.404 117.21 131.258 121.414 131.46C129.586 130.641 134.49 124.469 136.127 112.946C135.891 107.19 132.853 104.204 127.019 103.997C126.083 103.997 125.032 104.307 123.866 104.924C122.93 105.131 122.229 105.234 121.764 105.234C120.592 105.441 119.777 105.234 119.312 104.617C118.841 105.85 118.612 107.084 118.612 108.318C118.376 109.143 118.612 110.07 119.312 111.096C119.777 112.125 120.013 112.946 120.013 113.563Z" fill="#4565A6"/>
<path d="M193.222 120.66C192.751 120.868 192.401 120.868 192.171 120.66C191.936 120.459 191.7 120.35 191.471 120.35C190.069 120.35 188.898 120.66 187.968 121.277C187.654 119.364 187.599 117.501 187.902 115.579C187.986 115.052 188.11 114.488 188.501 114.125C189.456 113.242 191.278 113.415 192.025 114.423C193.017 115.759 193.12 117.839 193.222 119.426V120.66ZM193.222 137.939H191.471C189.834 138.147 188.668 138.355 187.968 138.556C187.968 138.147 187.847 137.323 187.617 136.089V132.694H188.318C189.948 132.902 191.585 132.8 193.222 132.384V137.939ZM190.42 155.836C189.483 156.043 188.668 155.941 187.968 155.526V150.281H189.018C189.483 150.488 190.069 150.488 190.77 150.281C191.471 150.079 192.171 149.974 192.872 149.974V152.441C193.101 154.707 192.286 155.836 190.42 155.836ZM206.896 134.046C207.389 141.985 210.768 146.068 217.042 146.269C218.208 146.477 219.495 146.378 220.896 145.962C220.421 150.079 219.96 153.883 219.495 157.38V160.464C219.96 168.071 223.459 172.083 230 172.498C236.535 172.291 239.924 168.381 240.159 160.771C240.159 158.511 239.924 155.014 239.459 150.281C239.223 148.43 239.108 146.477 239.108 144.418C239.338 144.626 239.924 144.728 240.86 144.728C249.031 145.141 253.12 142.568 253.12 137.013C253.35 131.051 249.146 128.171 240.509 128.373H238.408C238.172 123.438 238.408 120.149 239.108 118.499C239.338 117.681 240.86 117.064 243.662 116.649C249.031 115.83 251.719 113.462 251.719 109.553C251.483 103.588 246.465 100.504 236.656 100.296C230.58 100.296 224.51 101.018 218.444 102.454C218.208 102.661 217.972 102.764 217.743 102.764C216.342 102.971 215.17 103.074 214.24 103.074C211.903 103.074 210.036 102.764 208.635 102.147V104.924C207.699 113.772 210.966 117.988 218.444 117.576C221.246 117.576 222.523 120.251 222.297 125.598V126.215C222.297 127.657 222.173 128.788 221.947 129.61C220.071 130.022 218.093 130.124 215.992 129.917C212.718 129.917 211.087 128.891 211.087 126.832C211.087 125.598 211.552 124.361 212.489 123.128C209.035 124.755 207.172 128.283 206.902 133.705C206.924 130.41 207.023 127.189 207.234 124.055C207.463 120.558 207.699 116.959 207.935 113.254C207.699 104.614 203.03 100.194 193.923 99.9862C190.649 99.9862 186.566 100.811 181.662 102.454H180.962C179.089 102.252 177.108 102.045 175.006 101.837H172.204V105.848C172.204 107.497 172.554 109.658 173.255 112.33C174.185 115.213 174.656 117.473 174.656 119.116V120.97C174.656 147.094 172.905 162.625 169.402 167.56C171.503 170.232 174.771 171.674 179.21 171.881C183.643 171.674 186.331 168.896 187.267 163.549C187.496 162.113 187.617 160.569 187.617 158.92C187.847 159.745 187.968 160.569 187.968 161.391C189.133 168.586 192.401 172.291 197.776 172.498C204.311 172.498 207.463 167.765 207.234 158.303C207.234 155.634 207.113 151.722 206.884 146.579V134.855C206.884 134.579 206.896 134.316 206.896 134.046Z" fill="#4565A6"/>
<path d="M285.697 118.809H287.098H287.799C290.831 118.4 293.283 118.192 295.155 118.192C296.786 119.224 297.607 120.148 297.607 120.969C297.136 124.879 292.467 131.255 283.595 140.1C283.36 139.895 283.245 139.588 283.245 139.173C283.009 138.147 282.774 137.427 282.544 137.015C286.748 132.284 289.079 128.065 289.55 124.364C289.315 122.101 288.028 120.25 285.697 118.809ZM294.454 156.145C289.55 158.204 286.162 159.437 284.296 159.847C284.296 159.028 284.175 157.686 283.945 155.835C283.71 153.984 283.945 147.301 283.945 144.418C283.945 144.678 284.857 145.304 285.055 145.459C285.483 145.804 285.942 146.107 286.419 146.374C286.766 146.569 287.114 146.712 287.47 146.805C288.233 147.009 289.023 147.003 289.854 146.839C289.612 146.904 289.37 146.978 289.157 147.106C288.94 147.233 288.754 147.425 288.676 147.66C288.71 147.552 292.796 149.784 293.084 149.97C295.146 151.284 297.099 152.766 299.008 154.291C297.837 154.707 296.321 155.324 294.454 156.145ZM305.314 138.249C306.244 137.223 306.944 136.395 307.416 135.778V137.015C307.18 142.366 309.167 144.936 313.371 144.728C314.298 144.936 315.122 144.833 315.823 144.418C314.648 145.45 313.485 146.377 312.32 147.195C307.645 143.906 304.492 141.95 302.862 141.333C304.027 139.895 304.843 138.866 305.314 138.249ZM314.422 132.694C315.348 132.492 316.173 132.387 316.874 132.387C320.374 132.594 322.24 133.726 322.475 135.778C322.24 137.84 321.074 139.895 318.972 141.95C319.202 141.333 319.437 140.515 319.673 139.483C319.437 135.778 317.224 133.518 313.02 132.694H314.422ZM267.481 145.345C267.246 146.377 267.01 147.918 266.781 149.973C265.845 155.119 265.494 159.028 265.73 161.697C265.259 168.895 268.647 172.498 275.889 172.498C280.092 172.498 282.774 170.542 283.945 166.636C286.277 169.512 289.429 171.056 293.404 171.264C298.308 171.056 304.728 168.796 312.67 164.475C319.437 169.822 326.208 172.498 332.984 172.498C339.29 172.29 342.557 169.72 342.793 164.785C342.793 161.08 339.404 158.204 332.634 156.145C330.532 155.941 328.66 155.426 327.029 154.601C335.201 146.994 339.404 140.1 339.64 133.927C339.64 125.703 332.984 121.586 319.673 121.586H315.472C315.234 120.353 314.186 119.119 312.32 117.882C314.887 117.882 318.737 117.99 323.877 118.192C328.781 118.4 332.634 118.4 335.436 118.192C340.57 118.4 343.143 116.648 343.143 112.947C342.907 107.391 336.717 104.614 324.577 104.614C323.641 104.614 322.354 104.722 320.724 104.924C318.851 105.132 317.574 105.132 316.874 104.924C316.173 101.222 311.845 99.2695 303.913 99.0618C302.04 99.0618 299.588 99.5764 296.556 100.602C293.518 101.43 291.302 101.737 289.901 101.529C288.499 101.529 287.328 101.328 286.398 100.912V101.222C285.926 103.073 286.277 104.822 287.448 106.468C285.347 106.675 282.544 106.88 279.041 107.085C275.303 107.497 272.5 107.701 270.634 107.701C269.933 107.701 268.997 107.807 267.832 108.008H264.679C261.641 108.216 259.775 108.008 259.074 107.391C258.839 115.213 262.456 119.326 269.933 119.736C271.099 120.353 271.8 121.075 272.035 121.893C271.335 125.598 267.01 131.358 259.074 139.173C260.705 142.673 263.507 144.728 267.481 145.345Z" fill="#4565A6"/>
<path d="M400.239 146.579V138.249C407.245 138.045 410.628 140.308 410.398 145.035C410.628 149.152 409.112 151.105 405.844 150.897C403.742 150.897 401.87 150.696 400.239 150.28V146.579ZM421.958 121.894C428.964 121.894 432.579 120.043 432.814 116.342C433.044 109.553 425.225 106.468 409.347 107.085H406.545H405.144V106.775C404.908 102.047 400.239 99.4745 391.132 99.0622C389.259 99.0622 386.692 99.5767 383.425 100.603C380.387 101.635 378.17 102.047 376.769 101.84C375.132 101.84 373.846 101.635 372.916 101.22V101.53C372.445 103.796 372.795 105.957 373.967 108.009C369.763 108.424 365.563 108.731 361.359 108.936C359.487 109.348 357.735 109.45 356.105 109.243C354.003 109.45 352.366 109.45 351.201 109.243C350.029 109.041 349.213 108.731 348.748 108.319C348.513 118.192 352.831 123.028 361.71 122.821H365.213C366.84 122.411 368.241 122.204 369.413 122.204C372.445 121.999 375.718 121.692 379.221 121.277C379.922 122.926 380.387 124.671 380.623 126.522C378.75 126.73 376.069 126.937 372.566 127.139C369.063 127.554 366.49 127.756 364.862 127.756C362.289 126.73 358.436 126.01 353.302 125.598C353.532 126.423 353.653 127.347 353.653 128.373C353.882 129.2 354.003 130.332 354.003 131.767C354.003 134.238 353.767 137.632 353.302 141.951C352.602 146.269 352.366 149.564 352.602 151.824C352.131 161.081 355.754 165.604 363.461 165.402C369.993 165.402 373.031 160.464 372.566 150.59V149.047C372.566 146.787 372.445 145.035 372.215 143.801V140.1C374.782 140.1 377.349 139.998 379.922 139.79C380.387 139.79 380.737 139.691 380.973 139.483C380.737 140.925 380.502 142.983 380.272 145.652C379.572 153.058 379.221 158.511 379.221 162.008C379.221 168.797 382.839 172.29 390.081 172.498C397.552 172.498 401.29 169.414 401.29 163.241C401.055 159.537 400.819 155.836 400.59 152.134C400.819 152.959 401.405 154.193 402.341 155.836C402.571 156.452 402.806 156.762 403.042 156.762C404.207 162.315 408.526 165.294 416.003 165.709C426.276 165.914 431.177 159.952 430.716 147.813C431.416 132.592 421.487 125.189 400.94 125.598C400.704 123.543 399.768 121.999 398.138 120.97C402.106 121.178 406.074 121.382 410.048 121.587C414.016 121.794 417.984 121.894 421.958 121.894Z" fill="#4565A6"/>
<path d="M182.735 256.724C182.667 253.922 181.684 251.15 179.616 249.129C177.276 246.841 173.174 246.587 170.028 246.209C169.907 246.193 169.544 246.196 169.498 246.181C170.635 246.547 171.104 247.743 171.441 248.838C169.981 248.735 168.487 248.779 166.974 248.921C166.946 247.653 166.841 246.364 166.757 245.111C171.401 244.612 176.113 244.064 180.683 244.411C183.81 244.65 189 245.065 190.249 248.655C191.867 253.302 185.435 256.984 182.735 256.724ZM121.575 255.475C122.139 257.053 119.12 256.067 121.575 255.475ZM142.887 227.19C143.39 223.095 142.618 217.797 140.699 213.485C143.789 214.366 146.629 214.921 147.801 214.806C149.307 214.66 150.789 214.533 152.28 214.397C152.473 215.804 152.814 217.215 153.269 218.551C149.487 218.777 144.344 218.603 143.653 216.3C143.675 216.371 143.656 216.498 143.659 216.573C143.96 221.266 145.801 223.756 150.65 224.217C151.865 224.335 153.074 224.345 154.28 224.292C154.261 225.076 154.252 225.836 154.249 226.561C150.451 227.162 146.66 227.513 142.887 227.19ZM180.376 212.565C182.267 213.398 183.587 216.415 184.266 218.253C184.446 218.737 184.561 219.695 184.691 220.615C184.161 222.137 183.55 223.619 183.336 225.16C177.824 223.384 172.303 223.588 166.785 224.379C166.85 223.725 166.937 223.074 167.018 222.423C169.802 222.004 172.601 221.756 175.447 222.051C179.638 222.481 180.27 215.73 176.026 215.485C173.274 215.327 170.595 215.581 167.945 215.999C167.976 214.973 167.808 214.028 167.47 213.166C167.957 213.135 168.428 213.088 168.918 213.057C171.727 212.884 177.691 211.377 180.376 212.565ZM200.399 239.851C190.742 233.917 177.276 235.613 166.382 236.655C166.345 234.863 166.336 233.077 166.376 231.298C171.144 230.765 175.862 230.681 180.438 232.169C182.071 232.699 183.634 231.732 184.558 230.352C185.013 231.047 185.608 231.763 186.371 232.513C189.235 235.319 194.722 234.392 197.314 231.806C202.441 226.688 201.688 217.89 198.824 211.728C196.269 206.237 190.668 203.125 184.647 201.687C185.618 200.967 186.368 200.056 186.737 198.909C186.858 198.543 186.969 198.165 187.078 197.787C191.331 197.387 195.652 197.213 199.543 198.1C206.692 199.731 206.01 188.04 199.934 186.494C195.758 185.433 191.309 185.545 186.914 185.892C185.977 184.113 184.427 182.653 182.006 181.775C177.009 179.968 170.691 180.945 165.809 182.767C165.22 182.987 166.689 182.721 166.807 182.693C169.935 181.946 172.523 183.617 172.802 186.742C172.812 186.853 172.805 186.965 172.812 187.076C167.349 187.501 161.887 187.92 156.428 188.391C155.504 188.471 154.577 188.561 153.651 188.648C153.368 187.495 152.95 186.407 152.327 185.44C150.433 182.498 146.824 181.583 143.51 181.329C141.638 181.186 139.031 180.883 137.261 181.757C136.157 182.302 135.776 183.124 137.053 183.862C138.82 184.882 139.539 187.281 139.775 189.869C137.459 190.04 135.144 190.183 132.834 190.257C126.938 190.449 118.887 190.796 114.116 187.805C114.11 187.799 113.843 188.729 113.915 188.865C115.722 192.483 115.235 196.097 118.59 199.182C121.764 202.102 126.358 202.393 130.438 202.338C133.82 202.291 137.211 202.059 140.603 201.773C143.442 205.658 150.898 205.537 153.161 200.698C158.211 200.307 163.261 199.913 168.31 199.507C168.49 200.174 168.903 200.785 169.467 201.321C163.633 202.393 158.012 204.551 152.085 204.923C147.066 205.239 141.871 205.125 136.935 206.259C136.498 206.358 135.912 206.563 135.289 206.792C132.329 204.96 128.702 204.489 125.251 204.216C125.065 204.201 122.458 204.21 123.565 204.573C125.617 205.249 126.919 206.656 127.716 208.429C127.691 208.485 127.685 208.556 127.707 208.649C129.117 215.159 123.258 219.983 123.199 226.332C123.106 236.118 136.219 238.598 141.114 231.94C142.326 232.631 143.715 232.922 145.417 233.105C148.362 233.418 151.347 233.273 154.345 232.944C154.382 234.64 154.429 236.338 154.491 238.037C146.84 239.023 138.997 239.91 131.684 238.874C131.017 238.781 130.376 239.085 129.793 239.609C125.868 236.317 120.673 234.807 115.645 234.144C115.418 234.113 114.398 234.063 115.133 234.283C119.241 235.523 120.939 239.972 121.237 243.834C121.249 244.017 121.249 244.197 121.259 244.377C121.128 246.125 120.778 247.852 120.233 249.458C119.135 252.691 116.807 255.744 116.943 259.316C117.3 268.662 130.295 269.856 134.214 262.332C136.554 257.837 136.74 252.322 135.119 247.523C140.978 247.66 146.955 247.077 152.845 246.451C152.789 247.97 152.814 249.56 152.978 251.076C151.167 251.287 141.784 253.503 143.805 248.611C143.684 248.903 143.318 249.188 143.138 249.461C140.801 252.948 140.376 256.817 144.812 258.965C149.391 261.182 156.868 259.282 161.723 258.699C165.074 258.296 168.524 257.583 171.937 257.546C171.869 257.67 171.82 257.812 171.739 257.924C169.833 260.537 171.398 263.287 174.359 263.894C175.955 264.223 178.314 263.82 180.087 262.772C182.874 268.554 191.371 270.578 197.863 267.469C208.459 262.394 210.787 246.237 200.399 239.851Z" fill="#4565A6"/>
<path d="M212.72 236.085C212.758 236.1 212.801 236.165 212.838 236.209C212.798 236.11 212.751 236.014 212.73 235.896C212.736 235.921 212.699 236.076 212.72 236.085Z" fill="#4565A6"/>
<path d="M213.167 236.747C213.052 236.496 212.943 236.322 212.841 236.211C212.919 236.412 213.024 236.595 213.167 236.747Z" fill="#4565A6"/>
<path d="M248.844 250.833C248.707 250.799 248.032 250.681 247.095 250.539C248.019 249.593 248.903 248.682 249.727 247.848C252.672 244.859 249.929 239.524 246.423 238.604C249.408 236.021 247.43 230.726 244.132 228.882C245.672 228.429 247.207 227.943 248.723 227.437C248.906 228.008 249.098 228.566 249.293 229.087C251.755 235.584 254.042 240.448 254.011 247.702C253.993 251.915 252.765 251.853 248.844 250.833ZM231.924 208.465C232.175 206.856 232.156 205.114 231.958 203.372C239.73 202.067 247.508 200.697 255.375 200.334C261.442 200.052 267.583 199.24 273.653 199.389C276.297 199.454 284.218 199.686 282.801 203.927C282.491 204.854 278.297 205.003 274.664 205.065C268.854 201.909 259.638 204.869 254.157 206.308C250.508 207.266 236.999 211.711 231.924 208.465ZM296.32 247.07C291.149 246.961 285.805 241.828 281.998 238.914C280.907 238.08 279.81 237.252 278.715 236.418C284.066 235.144 289.789 233.101 293.171 229.245C299.411 222.127 283.979 214.265 277.544 214.241C277.057 214.238 275.935 214.517 275.653 214.461C276.57 214.644 277.218 215.515 277.559 216.324C278.855 219.402 277.172 221.24 275.036 222.976C272.605 224.948 269.133 227.899 265.68 229.362C265.144 229.276 264.387 229.18 263.659 229.167C263.138 228.2 262.611 227.236 262.081 226.25C261.575 225.305 261.021 224.266 260.537 223.181C263.079 222.254 265.258 221.507 266.855 221.138C271.322 220.103 270.042 213.804 266.721 211.609C268.327 211.677 269.67 212.061 270.64 212.917C273.991 215.874 278.216 211.971 277.568 208.456C281.189 210.356 284.131 213.614 288.852 213.68C293.391 213.742 296.147 211.134 297.842 206.912C301.965 196.626 294.566 188.752 284.627 187.739C279.342 187.199 274.013 187.543 268.69 188.204C267.193 182.326 262.406 179.493 256.057 181.374C253.351 182.177 240.886 186.468 239.64 180.754C239.662 180.854 239.445 181.818 239.414 182.091C239.104 184.682 239.231 188.287 241.394 190.101C242.972 191.425 245.517 191.391 248.078 191.158C248.028 191.164 247.979 191.17 247.932 191.174C241.429 191.837 234.909 192.302 228.405 192.965C226.747 190.532 224.487 188.756 221.592 187.928C220.159 187.516 216.774 187.221 216.03 186.849C217.89 187.782 218.957 189.589 219.527 191.657C219.22 192.727 218.895 193.79 218.538 194.844C217.506 197.901 215.565 200.139 214.356 203.047C210.689 211.863 222.14 220.431 229.351 213.825C229.769 213.441 230.117 212.994 230.43 212.523C232.959 217.334 238.415 217.601 244.578 216.454C232.218 220.053 218.464 223.528 217.509 220.475C217.487 220.4 217.5 220.943 217.506 220.986C218.405 230.689 226.022 232.345 235.176 230.953C228.105 234.257 215.745 239.475 213.166 236.747C213.69 237.887 214.313 240.129 214.623 240.625C215.996 242.813 218.244 244.661 220.755 245.417C225.405 246.822 231.044 244.475 235.498 243.077C236.996 242.606 238.48 242.079 239.953 241.527C236.208 244.249 232.299 246.908 228.139 248.79C225.243 250.098 221.939 252.175 218.966 252.944C217.611 253.294 212.273 253.973 211.368 252.653C211.334 252.606 211.253 252.566 211.228 252.532C215.488 257.805 220.485 265.676 228.945 263.67C232.966 262.715 236.986 259.925 240.681 256.701C244.178 264.585 251.407 268.354 260.466 265.71C269.694 263.013 271.204 255.009 270.057 246.946C276.071 255.607 284.218 262.836 294.113 264.532C305.344 266.46 307.505 247.311 296.32 247.07Z" fill="#4565A6"/>
<path d="M311.229 183.558C311.245 183.645 311.266 183.744 311.282 183.834C311.294 183.797 311.282 183.766 311.297 183.729C311.316 183.689 311.235 183.586 311.229 183.558Z" fill="#4565A6"/>
<path d="M311.419 184.532C311.372 184.297 311.326 184.061 311.283 183.832C311.205 184.086 311.252 184.318 311.419 184.532Z" fill="#4565A6"/>
<path d="M352.924 229.26C355.55 227.208 357.02 223.29 357.742 219.384C360.594 222.533 363.709 225.587 367.051 228.364C362.612 228.129 357.779 228.64 352.924 229.26ZM364.54 253.725C357.199 252.69 349.744 252.662 342.366 253.4C339.43 253.694 336.234 253.747 333.208 254.094C333.044 251.469 332.632 248.778 332.068 246.081C334.7 248.986 338.057 250.594 342.211 250.439C348.516 250.204 354.614 249.24 360.953 249.916C365.247 250.371 364.59 242.525 360.43 242.311C356.654 242.119 352.847 242.311 349.09 242.696C345.091 243.102 341.194 243.827 337.167 243.793C335.868 243.781 332.523 244.075 331.441 243.151C331.426 243.139 331.41 243.133 331.395 243.12C331.079 241.812 330.738 240.507 330.384 239.214C332.672 239.527 335.099 239.465 337.245 239.5C341.709 239.565 346.157 239.323 350.606 238.988C354.133 238.725 360.027 237.695 364.751 238.12C364.773 238.142 364.801 238.17 364.813 238.179C368.381 240.532 366.217 248.034 365.721 254.156C365.349 253.949 364.962 253.787 364.54 253.725ZM338.754 220.001C338.215 224.04 340.636 228.054 344.325 229.688C344.781 229.89 345.215 230.048 345.643 230.187C339.508 230.909 333.667 231.25 328.924 229.859C332.595 227.01 335.927 223.538 338.754 220.001ZM395.301 223.556C385.54 222.784 375.102 216.77 366.332 212.216C372.575 211.978 378.732 212.322 384.324 213.959C392.459 216.339 396.699 203.564 388.5 201.487C378.577 198.97 367.42 199.708 356.654 200.706C356.083 198.917 355.333 197.243 354.391 195.731C357.599 195.418 360.802 195.024 364.026 194.419C369.677 193.362 394.697 189.791 382.362 179.694C372.185 171.358 357.209 181.979 346.827 184.688C346.542 184.766 346.452 184.943 346.489 185.178C346.16 185.215 345.832 185.25 345.503 185.284C338.206 186.093 330.617 187.358 323.279 186.781C322.864 186.75 312.888 186.406 311.419 184.533C312.262 188.867 313.548 194.364 317.516 196.375C323.44 199.376 332.632 197.622 339.604 196.878C340.233 198.353 340.385 200.247 340.354 202.12C335.006 202.585 329.665 203.636 324.339 203.846C319.274 204.048 309.698 203.564 305.302 201.001C305.405 201.06 305.665 201.661 305.727 201.76C307.544 204.609 308.111 210.527 310.954 212.694C314.032 215.041 319.661 215.279 323.282 215.484C324.336 215.543 325.39 215.537 326.444 215.546C324.215 217.4 321.831 219.052 319.296 220.36C316.286 221.913 300.801 229.431 298.991 223.42C298.972 223.367 298.919 223.302 298.904 223.262C299.908 225.667 300.51 228.845 301.96 230.99C304.673 235.001 311.155 236.927 315.681 236.189C315.616 245.907 312.305 260.666 320.728 266.55C324.426 269.132 328.283 266.786 330.992 264.114C331.06 264.129 331.116 264.163 331.181 264.179C334.644 264.982 339.061 263.844 342.527 263.562C349.921 262.96 357.59 262.824 364.94 263.943C366.487 264.179 367.513 263.658 368.114 262.753C370.393 265.025 373.161 268.277 376.484 267.669C388.063 265.552 387.908 248.347 384.681 240.002C384.495 239.521 384.284 239.081 384.079 238.638C386.485 239.552 388.94 240.281 391.445 240.736C401.718 242.596 405.079 224.331 395.301 223.556Z" fill="#4565A6"/>
</svg>
